<?xml version="1.0"?>
<svg viewBox="0 0 24 24" xmlns="http://www.w3.org/2000/svg">
  <path d="M12.48 10.92v3.28h7.84c-.24 1.84-.853 3.187-1.787 4.133-1.147 1.147-2.933 2.4-6.053 2.4-4.827 0-8.6-3.893-8.6-8.72s3.773-8.72 8.6-8.72c2.6 0 4.507 1.027 5.907 2.347l2.307-2.307C18.747 1.44 16.133 0 12.48 0 5.867 0 .307 5.387.307 12s5.56 12 12.173 12c3.573 0 6.267-1.173 8.373-3.36 2.16-2.16 2.84-5.213 2.84-7.667 0-.76-.053-1.467-.173-2.053H12.48z" fill="#EA4335"/>
  <path d="M23.987 12.131c0-1.6-.147-2.827-.4-4.131H12.48v7.84h6.613c-.213 1.173-.853 2.72-2.453 3.813l-3.973 2.987c1.12.347 3.08.56 5.12-1.12 1.44-1.44 2.2-3.84 2.2-7.389z" fill="#4285F4"/>
  <path d="M5.28 14.4c-.16-.48-.253-1.013-.253-1.6 0-.587.093-1.12.253-1.6V8.16H1.413A11.83 11.83 0 000 12c0 1.92.453 3.733 1.413 5.333l3.867-2.933z" fill="#FBBC05"/>
  <path d="M12.48 24c3.04 0 5.6-1.04 7.467-2.827l-3.867-2.933c-1.013.693-2.32 1.2-3.6 1.2-2.773 0-5.173-1.84-6.027-4.4H1.413A11.999 11.999 0 0012.48 24z" fill="#34A853"/>
</svg>
