<?xml version="1.0"?>
<svg viewBox="0 0 24 24" xmlns="http://www.w3.org/2000/svg">
  <linearGradient id="a" x1="1.464" y1="1.464" x2="20.64" y2="20.64" gradientUnits="userSpaceOnUse">
    <stop offset="0" stop-color="#FFC107"/>
    <stop offset=".507" stop-color="#F44336"/>
    <stop offset=".99" stop-color="#9C27B0"/>
  </linearGradient>
  <path d="M12 2.163c3.204 0 3.584.012 4.85.07 3.252.148 4.771 1.691 4.919 4.919.058 1.265.069 1.645.069 4.849 0 3.205-.012 3.584-.069 4.849-.149 3.225-1.664 4.771-4.919 4.919-1.266.058-1.644.07-4.85.07-3.204 0-3.584-.012-4.849-.07-3.26-.149-4.771-1.699-4.919-4.92-.058-1.265-.07-1.644-.07-4.849 0-3.204.013-3.583.07-4.849.149-3.227 1.664-4.771 4.919-4.919C8.416 2.172 8.796 2.162 12 2.163zm0 1.802c-3.2 0-3.554.015-4.8.072-2.33.105-3.346 1.12-3.451 3.451-.057 1.246-.071 1.6-.071 4.8 0 3.2.014 3.554.071 4.8.106 2.33 1.12 3.346 3.451 3.451 1.246.057 1.6.071 4.8.071 3.2 0 3.554-.014 4.8-.071 2.33-.105 3.345-1.12 3.451-3.451.057-1.246.072-1.6.072-4.8 0-3.2-.015-3.554-.072-4.8-.105-2.33-1.12-3.346-3.451-3.451-1.246-.057-1.6-.072-4.8-.072zm0 2.9a5.1 5.1 0 1 1 0 10.2 5.1 5.1 0 0 1 0-10.2zm0 8.4a3.3 3.3 0 1 0 0-6.6 3.3 3.3 0 0 0 0 6.6zm6.6-8.4a1.2 1.2 0 1 0 0-2.4 1.2 1.2 0 0 0 0 2.4z" fill="url(#a)" fill-rule="evenodd"/>
</svg>
