<?xml version="1.0"?>
<svg viewBox="0 0 24 24" xmlns="http://www.w3.org/2000/svg">
  <path d="M12 0C5.4 0 0 5.4 0 12s5.4 12 12 12 12-5.4 12-12S18.6 0 12 0zm0 1.8c5.6 0 10.2 4.6 10.2 10.2 0 5.6-4.6 10.2-10.2 10.2-5.6 0-10.2-4.6-10.2-10.2C1.8 6.4 6.4 1.8 12 1.8z" fill="#00D6B5"/>
  <path d="M12 3.6c-4.6 0-8.4 3.8-8.4 8.4 0 4.6 3.8 8.4 8.4 8.4 4.6 0 8.4-3.8 8.4-8.4 0-4.6-3.8-8.4-8.4-8.4zm0 1.8c3.6 0 6.6 3 6.6 6.6 0 3.6-3 6.6-6.6 6.6-3.6 0-6.6-3-6.6-6.6 0-3.6 3-6.6 6.6-6.6z" fill="#00D6B5"/>
  <path d="M12 6c-3.3 0-6 2.7-6 6s2.7 6 6 6 6-2.7 6-6-2.7-6-6-6z" fill="#00D6B5"/>
</svg>
